<?xml version="1.0" encoding="utf-8"?>
<!-- Generator: Adobe Illustrator 16.0.0, SVG Export Plug-In . SVG Version: 6.00 Build 0)  -->
<!DOCTYPE svg PUBLIC "-//W3C//DTD SVG 1.1//EN" "http://www.w3.org/Graphics/SVG/1.1/DTD/svg11.dtd">
<svg version="1.1" id="Layer_1" xmlns="http://www.w3.org/2000/svg" xmlns:xlink="http://www.w3.org/1999/xlink" x="0px" y="0px"
	 width="283.411px" height="77.829px" viewBox="0 0 283.411 77.829" enable-background="new 0 0 283.411 77.829"
	 xml:space="preserve">
<path fill="#FCED23" d="M281.892,69.282c0,3.883-3.091,7.031-6.891,7.031H8.401c-3.801,0-6.892-3.148-6.892-7.031V8.549
	c0-3.886,3.091-7.033,6.892-7.033h266.6c3.8,0,6.891,3.147,6.891,7.033V69.282"/>
<path fill="#231F20" d="M281.892,69.282h-1.521c0,1.537-0.601,2.912-1.58,3.91s-2.31,1.604-3.79,1.605H8.401
	C6.92,74.797,5.59,74.19,4.61,73.194c-0.969-1-1.58-2.375-1.58-3.912V8.549c0-1.538,0.611-2.914,1.58-3.913
	C5.59,3.638,6.92,3.033,8.401,3.032h266.6c1.48,0.001,2.811,0.606,3.79,1.604c0.979,1,1.58,2.375,1.58,3.913v60.733h3.04V8.549
	c0-2.347-0.94-4.489-2.46-6.034c-1.51-1.548-3.621-2.516-5.95-2.515H8.401C6.07-0.001,3.96,0.967,2.45,2.515
	C0.93,4.06,0,6.202,0,8.549v60.733c0,2.346,0.93,4.486,2.45,6.033c1.51,1.547,3.62,2.516,5.951,2.514h266.6
	c2.329,0.002,4.44-0.967,5.95-2.514c1.52-1.547,2.46-3.688,2.46-6.033H281.892"/>
<rect x="12.24" y="56.413" fill="#0E68B2" width="258.291" height="11.941"/>
<polygon fill="#0E68B2" points="153.581,17.468 155.871,17.468 155.292,15.998 154.172,15.998 "/>
<polygon fill="#0E68B2" points="145.521,37.592 163.731,37.592 163.131,36.047 146.141,36.047 "/>
<polygon fill="#0E68B2" points="18.771,17.129 18.661,17.129 18.661,17.468 19.021,17.468 "/>
<polygon fill="#0E68B2" points="154.741,14.578 154.672,14.753 154.811,14.753 "/>
<polygon fill="#0E68B2" points="18.601,9.789 14.271,9.789 14.271,11.702 20.001,11.702 "/>
<rect x="14.271" y="50.024" fill="#0E68B2" width="4.391" height="1.691"/>
<rect x="43.61" y="12.947" fill="#0E68B2" width="4.392" height="1.807"/>
<rect x="43.61" y="9.789" fill="#0E68B2" width="4.392" height="1.913"/>
<polygon fill="#0E68B2" points="43.61,51.716 48.001,51.716 48.001,50.024 42.4,50.024 "/>
<polygon fill="#0E68B2" points="34.081,30.958 28.701,30.958 29.602,32.203 34.99,32.203 "/>
<rect x="43.61" y="27.868" fill="#0E68B2" width="4.392" height="1.849"/>
<rect x="43.61" y="21.651" fill="#0E68B2" width="4.392" height="1.922"/>
<rect x="43.61" y="30.958" fill="#0E68B2" width="4.392" height="1.245"/>
<rect x="43.61" y="18.711" fill="#0E68B2" width="4.392" height="1.696"/>
<rect x="43.61" y="15.998" fill="#0E68B2" width="4.392" height="1.47"/>
<rect x="43.61" y="33.445" fill="#0E68B2" width="4.392" height="1.357"/>
<rect x="43.61" y="41.549" fill="#0E68B2" width="4.392" height="1.467"/>
<rect x="43.61" y="38.833" fill="#0E68B2" width="4.392" height="1.471"/>
<rect x="43.61" y="36.047" fill="#0E68B2" width="4.392" height="1.545"/>
<polygon fill="#0E68B2" points="25.122,18.711 19.91,18.711 21.132,20.407 26.36,20.407 "/>
<polygon fill="#0E68B2" points="37.802,36.047 32.361,36.047 33.472,37.592 38.921,37.592 "/>
<polygon fill="#0E68B2" points="35.892,33.445 30.491,33.445 31.461,34.802 36.892,34.802 "/>
<polygon fill="#0E68B2" points="48.001,44.261 38.262,44.261 39.392,45.842 48.001,45.842 "/>
<polygon fill="#0E68B2" points="41.812,41.549 36.312,41.549 37.361,43.016 42.891,43.016 "/>
<polygon fill="#0E68B2" points="39.831,38.833 34.36,38.833 35.41,40.305 40.91,40.305 "/>
<polygon fill="#0E68B2" points="27.271,21.651 22.021,21.651 23.401,23.573 28.681,23.573 "/>
<polygon fill="#0E68B2" points="31.821,27.868 26.48,27.868 27.811,29.717 33.172,29.717 "/>
<polygon fill="#0E68B2" points="29.591,24.815 24.291,24.815 25.591,26.625 30.91,26.625 "/>
<rect x="43.61" y="24.815" fill="#0E68B2" width="4.392" height="1.809"/>
<rect x="14.271" y="18.711" fill="#0E68B2" width="4.391" height="1.696"/>
<rect x="14.271" y="21.651" fill="#0E68B2" width="4.391" height="1.922"/>
<rect x="14.271" y="24.815" fill="#0E68B2" width="4.391" height="1.809"/>
<polygon fill="#0E68B2" points="18.661,17.129 18.771,17.129 19.021,17.468 24.222,17.468 23.141,15.998 14.271,15.998 
	14.271,17.468 18.661,17.468 "/>
<rect x="14.271" y="27.868" fill="#0E68B2" width="4.391" height="1.849"/>
<polygon fill="#0E68B2" points="20.911,12.947 14.271,12.947 14.271,14.754 22.23,14.754 "/>
<rect x="14.271" y="36.047" fill="#0E68B2" width="4.391" height="1.545"/>
<rect x="14.271" y="41.549" fill="#0E68B2" width="4.391" height="1.467"/>
<rect x="14.271" y="44.261" fill="#0E68B2" width="4.391" height="1.584"/>
<rect x="14.271" y="47.086" fill="#0E68B2" width="4.391" height="1.696"/>
<rect x="14.271" y="38.833" fill="#0E68B2" width="4.391" height="1.471"/>
<rect x="14.271" y="33.445" fill="#0E68B2" width="4.391" height="1.357"/>
<polygon fill="#0E68B2" points="40.292,47.086 41.501,48.785 48.001,48.785 48.001,47.086 "/>
<rect x="14.271" y="30.958" fill="#0E68B2" width="4.391" height="1.245"/>
<path fill="#0E68B2" d="M60.702,36.047H55.03c0.11,0.521,0.231,1.036,0.37,1.545h5.7C60.952,37.083,60.811,36.568,60.702,36.047"/>
<path fill="#0E68B2" d="M60.302,33.445h-5.66c0.039,0.461,0.119,0.908,0.18,1.357h5.64C60.392,34.353,60.341,33.9,60.302,33.445"/>
<path fill="#0E68B2" d="M93.312,37.592h5.75c0.159-0.509,0.3-1.024,0.42-1.545h-5.69C93.651,36.572,93.491,37.083,93.312,37.592"/>
<path fill="#0E68B2" d="M94.431,31.133c0,0.36-0.029,0.714-0.05,1.07h5.63c0.021-0.356,0.061-0.709,0.061-1.07l-0.01-0.175h-5.641
	L94.431,31.133"/>
<path fill="#0E68B2" d="M60.171,31.133l0.011-0.175h-5.641l-0.011,0.175c0,0.361,0.04,0.714,0.05,1.07h5.631
	C60.2,31.847,60.171,31.492,60.171,31.133"/>
<path fill="#0E68B2" d="M89.341,17.468h6.341c-0.391-0.511-0.801-0.999-1.221-1.47h-6.83C88.24,16.45,88.812,16.938,89.341,17.468"
	/>
<path fill="#0E68B2" d="M65.921,17.468c0.561-0.526,1.131-1.023,1.75-1.47h-6.88c-0.461,0.471-0.899,0.959-1.31,1.47H65.921"/>
<path fill="#0E68B2" d="M94.202,27.868c0.078,0.61,0.14,1.227,0.18,1.849h5.63c-0.04-0.625-0.101-1.241-0.181-1.849H94.202"/>
<path fill="#0E68B2" d="M77.302,53.388c4.188,0,8.26-1.232,11.789-3.363H64.7C68.2,52.155,72.461,53.388,77.302,53.388"/>
<path fill="#0E68B2" d="M92.11,40.305h5.87c0.231-0.481,0.431-0.973,0.62-1.471h-5.779C92.601,39.338,92.371,39.827,92.11,40.305"/>
<path fill="#0E68B2" d="M77.302,8.879c-3.83,0-7.562,1.025-10.86,2.823h22.54C85.66,9.904,81.722,8.879,77.302,8.879"/>
<path fill="#0E68B2" d="M93.132,23.573h5.729c-0.219-0.658-0.469-1.3-0.739-1.922h-5.81C92.621,22.271,92.892,22.913,93.132,23.573"
	/>
<path fill="#0E68B2" d="M60.462,27.868h-5.65c-0.09,0.608-0.161,1.224-0.201,1.849h5.63C60.291,29.092,60.36,28.476,60.462,27.868"
	/>
<path fill="#0E68B2" d="M61.241,24.815h-5.74c-0.181,0.592-0.351,1.191-0.489,1.809h5.709C60.87,26.006,61.042,25.406,61.241,24.815
	"/>
<path fill="#0E68B2" d="M99.661,26.625c-0.109-0.618-0.261-1.217-0.421-1.809h-5.698c0.17,0.592,0.318,1.194,0.438,1.809H99.661"/>
<path fill="#0E68B2" d="M94.081,34.802h5.649c0.071-0.449,0.161-0.896,0.21-1.357h-5.66C94.222,33.9,94.172,34.356,94.081,34.802"/>
<path fill="#0E68B2" d="M64.741,18.711h-6.229c-0.38,0.549-0.75,1.113-1.09,1.696h6.019C63.842,19.815,64.271,19.248,64.741,18.711"
	/>
<path fill="#0E68B2" d="M62.802,41.549H56.91c0.25,0.502,0.531,0.989,0.812,1.467h6.029C63.41,42.546,63.091,42.056,62.802,41.549"
	/>
<path fill="#0E68B2" d="M89.231,44.261c-0.551,0.57-1.141,1.095-1.761,1.581h6.75c0.47-0.505,0.91-1.034,1.33-1.581H89.231"/>
<path fill="#0E68B2" d="M93.231,14.754c-0.7-0.649-1.45-1.255-2.25-1.807H78.832c2.599,0.18,4.858,0.816,6.778,1.807H93.231"/>
<path fill="#0E68B2" d="M85.681,47.086c-1.229,0.74-2.58,1.304-4,1.699h9.271c0.709-0.533,1.399-1.089,2.06-1.699H85.681"/>
<path fill="#0E68B2" d="M64.761,44.261h-6.229c0.39,0.547,0.79,1.076,1.229,1.581h6.66C65.821,45.356,65.271,44.827,64.761,44.261"
	/>
<path fill="#0E68B2" d="M91.382,41.549c-0.33,0.509-0.69,0.998-1.062,1.467h6.121c0.31-0.478,0.62-0.965,0.899-1.467H91.382"/>
<path fill="#0E68B2" d="M97.552,20.407c-0.301-0.583-0.642-1.147-0.99-1.696H90.45c0.431,0.537,0.811,1.108,1.171,1.696H97.552"/>
<path fill="#0E68B2" d="M55.792,38.833c0.17,0.498,0.35,0.99,0.55,1.471h5.8c-0.221-0.481-0.43-0.969-0.621-1.471H55.792"/>
<path fill="#0E68B2" d="M69.712,14.754c1.89-0.991,3.979-1.624,6.22-1.807H64.41c-0.809,0.552-1.59,1.158-2.319,1.807H69.712"/>
<path fill="#0E68B2" d="M61.722,23.573c0.279-0.663,0.6-1.304,0.949-1.922h-5.89c-0.31,0.622-0.59,1.264-0.84,1.922H61.722"/>
<path fill="#0E68B2" d="M60.901,47.086c0.619,0.61,1.279,1.166,1.979,1.699h9.491c-1.541-0.397-2.95-0.962-4.191-1.699H60.901"/>
<polygon fill="#0E68B2" points="113.292,40.305 117.501,40.305 116.95,38.834 112.712,38.834 "/>
<polygon fill="#0E68B2" points="106.071,10.173 101.502,10.173 102.092,11.702 106.661,11.702 "/>
<polygon fill="#0E68B2" points="112.231,37.592 116.471,37.592 115.891,36.047 111.622,36.047 "/>
<polygon fill="#0E68B2" points="108.841,17.468 108.28,15.998 103.771,15.998 104.352,17.468 "/>
<polygon fill="#0E68B2" points="127.69,26.625 131.98,26.625 132.701,24.815 128.381,24.815 "/>
<polygon fill="#0E68B2" points="111.151,23.573 110.431,21.651 105.991,21.651 106.741,23.573 "/>
<polygon fill="#0E68B2" points="125.081,33.445 124.561,34.802 128.78,34.802 129.311,33.445 "/>
<polygon fill="#0E68B2" points="111.132,34.802 115.421,34.802 114.901,33.445 110.602,33.445 "/>
<polygon fill="#0E68B2" points="138.452,10.173 133.98,10.173 133.391,11.702 137.851,11.702 "/>
<polygon fill="#0E68B2" points="109.632,30.958 110.121,32.203 114.432,32.203 113.961,30.958 "/>
<polygon fill="#0E68B2" points="114.351,43.016 118.531,43.016 117.971,41.549 113.771,41.549 "/>
<polygon fill="#0E68B2" points="109.142,29.717 113.491,29.717 112.791,27.868 108.421,27.868 "/>
<polygon fill="#0E68B2" points="107.931,26.625 112.312,26.625 111.631,24.815 107.231,24.815 "/>
<polygon fill="#0E68B2" points="114.831,44.261 115.451,45.842 119.602,45.842 119.001,44.261 "/>
<polygon fill="#0E68B2" points="120.341,45.842 124.441,45.842 125.062,44.261 120.941,44.261 "/>
<polygon fill="#0E68B2" points="126.511,29.717 130.771,29.717 131.501,27.868 127.211,27.868 "/>
<polygon fill="#0E68B2" points="105.501,20.407 109.95,20.407 109.312,18.711 104.842,18.711 "/>
<polygon fill="#0E68B2" points="125.562,32.203 129.801,32.203 130.281,30.958 126.031,30.958 "/>
<polygon fill="#0E68B2" points="122.462,40.305 126.621,40.305 127.19,38.834 123.021,38.834 "/>
<polygon fill="#0E68B2" points="123.501,37.592 127.682,37.592 128.291,36.047 124.092,36.047 "/>
<polygon fill="#0E68B2" points="121.421,43.016 125.552,43.016 126.132,41.549 121.981,41.549 "/>
<polygon fill="#0E68B2" points="136.651,14.754 137.36,12.947 132.922,12.947 132.23,14.754 "/>
<polygon fill="#0E68B2" points="134.431,20.407 135.091,18.711 130.711,18.711 130.062,20.407 "/>
<polygon fill="#0E68B2" points="117.901,52.097 121.991,52.097 122.801,50.024 117.091,50.024 "/>
<polygon fill="#0E68B2" points="107.812,14.754 107.131,12.947 102.581,12.947 103.291,14.754 "/>
<polygon fill="#0E68B2" points="115.94,47.086 116.601,48.785 123.292,48.785 123.951,47.086 "/>
<polygon fill="#0E68B2" points="128.86,23.573 133.19,23.573 133.94,21.651 129.591,21.651 "/>
<polygon fill="#0E68B2" points="131.19,17.468 135.581,17.468 136.161,15.998 131.752,15.998 "/>
<polygon fill="#0E68B2" points="145.712,26.625 149.921,26.625 150.642,24.815 146.472,24.815 "/>
<polygon fill="#0E68B2" points="168.991,51.335 173.762,51.335 173.23,50.024 168.48,50.024 "/>
<polygon fill="#0E68B2" points="144.401,29.717 148.681,29.717 149.422,27.868 145.181,27.868 "/>
<polygon fill="#0E68B2" points="143.351,32.203 147.681,32.203 148.181,30.958 143.872,30.958 "/>
<polygon fill="#0E68B2" points="135.261,51.335 140.031,51.335 140.571,50.024 135.821,50.024 "/>
<polygon fill="#0E68B2" points="147.001,23.573 151.142,23.573 151.91,21.651 147.812,21.651 "/>
<polygon fill="#0E68B2" points="166.86,45.842 171.551,45.842 170.922,44.261 166.251,44.261 "/>
<polygon fill="#0E68B2" points="168.001,48.784 172.73,48.784 172.052,47.086 167.342,47.086 "/>
<polygon fill="#0E68B2" points="153.581,17.468 154.172,15.998 150.201,15.998 149.57,17.468 "/>
<polygon fill="#0E68B2" points="137.062,47.086 136.341,48.785 141.071,48.785 141.761,47.086 "/>
<polygon fill="#0E68B2" points="162.642,34.802 167.111,34.802 166.562,33.445 162.111,33.445 "/>
<polygon fill="#0E68B2" points="148.341,20.407 152.401,20.407 153.081,18.711 149.052,18.711 "/>
<polygon fill="#0E68B2" points="142.251,34.802 146.642,34.802 147.182,33.445 142.83,33.445 "/>
<polygon fill="#0E68B2" points="139.931,40.305 169.321,40.305 168.731,38.834 140.551,38.834 "/>
<polygon fill="#0E68B2" points="163.731,37.592 168.231,37.592 167.61,36.047 163.131,36.047 "/>
<polygon fill="#0E68B2" points="151.481,12.947 150.721,14.754 154.671,14.754 154.741,14.578 154.811,14.754 159.051,14.754 
	158.321,12.947 "/>
<polygon fill="#0E68B2" points="156.901,9.41 152.98,9.41 152.011,11.702 157.821,11.702 "/>
<polygon fill="#0E68B2" points="157.021,20.407 161.321,20.407 160.641,18.711 156.351,18.711 "/>
<polygon fill="#0E68B2" points="155.872,17.468 160.142,17.468 159.552,15.998 155.292,15.998 "/>
<polygon fill="#0E68B2" points="141.731,36.047 141.071,37.592 145.521,37.592 146.141,36.047 "/>
<polygon fill="#0E68B2" points="158.251,23.573 162.592,23.573 161.82,21.651 157.501,21.651 "/>
<polygon fill="#0E68B2" points="160.651,29.717 165.061,29.717 164.321,27.868 159.931,27.868 "/>
<polygon fill="#0E68B2" points="161.632,32.203 166.062,32.203 165.562,30.958 161.142,30.958 "/>
<polygon fill="#0E68B2" points="159.44,26.625 163.821,26.625 163.091,24.815 158.741,24.815 "/>
<polygon fill="#0E68B2" points="142.271,45.842 142.911,44.261 138.251,44.261 137.581,45.842 "/>
<rect x="144.771" y="36.026" fill="#0E68B2" width="19.64" height="1.53"/>
<polygon fill="#0E68B2" points="169.821,41.549 165.122,41.549 165.122,41.821 165.301,41.821 165.771,43.016 170.411,43.016 "/>
<polygon fill="#0E68B2" points="139.401,41.549 138.78,43.016 143.411,43.016 143.891,41.821 144.11,41.821 144.11,41.549 "/>
<rect x="181.682" y="41.571" fill="#231F20" width="4.43" height="1.707"/>
<rect x="181.682" y="38.685" fill="#231F20" width="4.43" height="1.86"/>
<rect x="181.682" y="27.45" fill="#231F20" width="4.43" height="2.316"/>
<rect x="181.682" y="35.952" fill="#231F20" width="4.43" height="1.709"/>
<rect x="181.682" y="15.305" fill="#231F20" width="4.43" height="2.163"/>
<rect x="181.682" y="33.068" fill="#231F20" width="4.43" height="1.859"/>
<polygon fill="#231F20" points="186.11,13.638 194.672,13.638 194.672,12.42 172.382,12.42 172.382,13.638 181.681,13.638 
	181.681,14.28 186.11,14.28 "/>
<rect x="181.682" y="49.919" fill="#231F20" width="4.43" height="1.416"/>
<rect x="172.382" y="9.41" fill="#231F20" width="22.29" height="1.985"/>
<rect x="181.682" y="44.303" fill="#231F20" width="4.43" height="1.556"/>
<rect x="181.682" y="46.884" fill="#231F20" width="4.43" height="2.011"/>
<rect x="181.682" y="30.791" fill="#231F20" width="4.43" height="1.251"/>
<rect x="181.682" y="21.529" fill="#231F20" width="4.43" height="2.163"/>
<rect x="181.682" y="24.717" fill="#231F20" width="4.43" height="1.708"/>
<rect x="181.682" y="18.493" fill="#231F20" width="4.43" height="2.011"/>
<rect x="199.66" y="33.068" fill="#231F20" width="4.16" height="1.859"/>
<rect x="199.66" y="38.685" fill="#231F20" width="4.16" height="1.86"/>
<rect x="199.66" y="9.41" fill="#231F20" width="24.12" height="1.985"/>
<rect x="199.66" y="35.952" fill="#231F20" width="4.16" height="1.709"/>
<polygon fill="#231F20" points="203.821,47.108 203.821,46.884 199.661,46.884 199.661,48.896 223.78,48.896 223.78,47.108 "/>
<rect x="199.66" y="49.919" fill="#231F20" width="24.12" height="1.416"/>
<rect x="199.66" y="44.303" fill="#231F20" width="4.16" height="1.556"/>
<rect x="199.66" y="41.571" fill="#231F20" width="4.16" height="1.707"/>
<rect x="199.66" y="24.717" fill="#231F20" width="4.16" height="1.708"/>
<polygon fill="#231F20" points="204.872,32.221 221.11,32.214 221.11,30.791 199.66,30.791 199.66,32.201 203.82,32.201 "/>
<rect x="199.66" y="21.529" fill="#231F20" width="4.16" height="2.163"/>
<rect x="199.66" y="18.493" fill="#231F20" width="4.16" height="2.011"/>
<rect x="199.66" y="15.305" fill="#231F20" width="4.16" height="2.163"/>
<polygon fill="#231F20" points="203.821,14.28 203.821,13.638 223.78,13.638 223.78,12.42 199.661,12.42 199.661,14.28 "/>
<path fill="#231F20" d="M251.53,52.627c4.312,0,8.25-0.929,11.57-2.708h-22.969C243.382,51.651,247.221,52.627,251.53,52.627"/>
<path fill="#231F20" d="M234.802,45.858h6.97c-0.691-0.472-1.351-0.985-1.941-1.556h-6.358
	C233.881,44.843,234.33,45.362,234.802,45.858"/>
<path fill="#231F20" d="M232.722,43.278h6.149c-0.47-0.541-0.899-1.108-1.29-1.707h-5.9
	C232.001,42.155,232.351,42.728,232.722,43.278"/>
<path fill="#231F20" d="M251.53,8.118c-4.108,0-8.1,1.202-11.568,3.277h24.59C261.132,9.273,256.712,8.118,251.53,8.118"/>
<path fill="#231F20" d="M236.981,40.545c-0.341-0.6-0.641-1.218-0.899-1.86h-5.71c0.238,0.637,0.5,1.257,0.789,1.86H236.981"/>
<path fill="#231F20" d="M232.521,18.493c-0.43,0.648-0.819,1.318-1.18,2.011h5.87c0.42-0.705,0.88-1.375,1.39-2.011H232.521"/>
<path fill="#231F20" d="M243.44,14.28c1.53-0.885,3.211-1.514,5.011-1.86h-10.061c-0.8,0.573-1.58,1.187-2.3,1.86H243.44"/>
<path fill="#231F20" d="M233.222,17.468h6.239c0.74-0.797,1.54-1.523,2.41-2.163h-6.81C234.401,15.99,233.791,16.705,233.222,17.468
	"/>
<path fill="#231F20" d="M261.312,45.858h6.959c0.44-0.494,0.86-1.008,1.25-1.556h-6.159
	C262.731,44.868,262.051,45.389,261.312,45.858"/>
<path fill="#231F20" d="M228.991,32.042h5.59c-0.029-0.414-0.039-0.833-0.051-1.251h-5.6
	C228.94,31.211,228.962,31.627,228.991,32.042"/>
<path fill="#231F20" d="M228.94,29.766h5.61c0.021-0.783,0.09-1.557,0.201-2.316h-5.621
	C229.031,28.208,228.971,28.979,228.94,29.766"/>
<path fill="#231F20" d="M229.321,34.927h5.649c-0.12-0.612-0.219-1.233-0.29-1.859h-5.609
	C229.132,33.697,229.212,34.319,229.321,34.927"/>
<path fill="#231F20" d="M230.021,37.661h5.681c-0.19-0.561-0.36-1.128-0.5-1.709h-5.641
	C229.701,36.531,229.851,37.103,230.021,37.661"/>
<path fill="#231F20" d="M260.591,14.28h7.461c-0.61-0.67-1.28-1.294-2.011-1.86h-10.84C257.171,12.759,258.99,13.383,260.591,14.28"
	/>
<path fill="#231F20" d="M264.392,43.278h5.789c0.33-0.547,0.641-1.115,0.931-1.707h-5.46
	C265.281,42.168,264.871,42.741,264.392,43.278"/>
<path fill="#231F20" d="M264.431,17.468h5.87c-0.409-0.764-0.87-1.484-1.399-2.163h-6.73
	C263.011,15.933,263.771,16.655,264.431,17.468"/>
<path fill="#231F20" d="M266.271,20.504h5.28c-0.21-0.695-0.46-1.368-0.74-2.011h-5.62
	C265.601,19.118,265.961,19.788,266.271,20.504"/>
<path fill="#231F20" d="M229.302,26.425h5.629c0.11-0.578,0.261-1.149,0.431-1.708H229.7
	C229.541,25.279,229.41,25.847,229.302,26.425"/>
<path fill="#231F20" d="M229.981,23.692h5.721c0.269-0.744,0.579-1.468,0.938-2.163h-5.819
	C230.502,22.232,230.221,22.952,229.981,23.692"/>
<path fill="#231F20" d="M251.53,48.634c-3.13,0-5.778-0.646-8.01-1.75h-7.67c0.79,0.727,1.63,1.41,2.54,2.012h26.43
	c0.892-0.6,1.71-1.275,2.481-2.012h-7.852C257.07,48.001,254.331,48.634,251.53,48.634"/>
<polygon fill="#231F20" points="203.812,27.45 199.661,27.45 199.661,29.766 221.111,29.766 221.111,28.789 203.812,28.789 "/>
<polygon fill="#FFFFFF" points="48.491,65.422 46.11,61.054 46.092,61.054 46.092,65.422 44.07,65.422 44.07,58.563 46.98,58.563 
	49.342,63.159 49.37,63.159 49.37,58.563 51.391,58.563 51.391,65.422 "/>
<path fill="#FFFFFF" d="M71.73,65.422h3.031c2.7,0,4.149-1.054,4.149-3.427c0-2.375-1.449-3.432-4.149-3.432H71.73V65.422
	 M73.741,59.966h1.141c1.009,0,1.898,0.443,1.898,2.029c0,1.258-0.568,2.025-1.898,2.025h-1.141V59.966z"/>
<path fill="#FFFFFF" d="M130.661,60.562c-0.061-0.721-0.461-1.057-1.211-1.057c-0.568,0-1.17,0.154-1.17,0.817
	c0,1.287,4.602,0.239,4.602,2.892c0,1.576-1.25,2.422-3.38,2.422c-1.54,0-3.341-0.327-3.401-2.286h2.01
	c0,1.056,0.821,1.131,1.471,1.131c0.899,0,1.301-0.287,1.301-0.806c0-1.535-4.611-0.104-4.611-3.113c0-1.018,0.72-2.208,3.38-2.208
	c1.441,0,2.91,0.595,3.021,2.208H130.661"/>
<polygon fill="#FFFFFF" points="154.911,65.422 154.911,60.043 152.771,60.043 152.771,58.563 159.052,58.563 159.052,60.043 
	156.922,60.043 156.922,65.422 "/>
<path fill="#FFFFFF" d="M181.741,59.966v1.373h1.689c0.311,0,0.68-0.267,0.67-0.682c-0.009-0.432-0.28-0.691-0.67-0.691H181.741
	 M179.741,58.563h3.359c2.55,0,3,0.865,3.01,1.796c0.01,1.067-0.68,1.509-1.26,1.616v0.02c0.59,0.161,1.1,0.45,1.1,1.209v0.807
	c0,0.808,0.021,1.183,0.342,1.41h-2.151c-0.19-0.295-0.2-0.678-0.2-0.832v-0.991c0-0.634-0.17-0.854-1.04-0.854h-1.159v2.678h-2
	V58.563z"/>
<rect x="206.852" y="58.563" fill="#FFFFFF" width="2.01" height="6.858"/>
<rect x="21.302" y="58.563" fill="#FFFFFF" width="2" height="6.858"/>
<path fill="#FFFFFF" d="M231.212,65.422l0.479-1.354h2.67l0.481,1.354h2.148l-2.698-6.858h-2.48l-2.781,6.858H231.212z
	 M233.042,60.274h0.01l0.83,2.469h-1.711L233.042,60.274z"/>
<polygon fill="#FFFFFF" points="257.241,65.422 257.241,58.563 259.251,58.563 259.251,64.021 262.581,64.021 262.581,65.422 "/>
<path fill="#FFFFFF" d="M101.36,58.794v3.982c0,1.209,0.32,1.609,1.36,1.621c1.03-0.012,1.34-0.412,1.34-1.621l0.011-3.982h2.01
	v4.516c0,1.424-0.801,2.352-3.36,2.379c-2.58-0.027-3.36-0.955-3.36-2.379v-4.516H101.36"/>
<path fill="#231F20" d="M272.061,10.863V9.614h0.83c0.431,0,0.931,0.086,0.931,0.594c0,0.595-0.471,0.655-0.99,0.655H272.061
	 M272.061,11.419h0.67l1.11,1.807h0.75l-1.19-1.836c0.65-0.066,1.12-0.385,1.12-1.133c0-0.847-0.529-1.202-1.55-1.202h-1.62v4.171
	h0.71V11.419z M272.811,14.782c2.021,0,3.78-1.5,3.78-3.652c0-2.132-1.76-3.63-3.78-3.63c-2.03,0-3.79,1.498-3.79,3.63
	C269.021,13.282,270.78,14.782,272.811,14.782 M269.86,11.13c0-1.698,1.28-2.978,2.95-2.978c1.66,0,2.931,1.28,2.931,2.978
	c0,1.729-1.271,2.997-2.931,2.997C271.141,14.127,269.86,12.859,269.86,11.13"/>
</svg>
